# xmcd
#
# Track frame offsets:
#	150
#	17535
#	36372
#	54978
#	74665
#	89791
#	103563
#	118891
#	134855
#	150850
#	174030
#	187331
#
# Disc length: 2759 seconds
#
# Revision: 1
# Processed by: cddbd v1.5.2PL0 Copyright (c) Steve Scherf et al.
# Submitted via: audiograbber 1.83.01
#
DISCID=a90ac50c
DTITLE=Jim Hunter with Jim Michie and Chris Pritchhard - Coastlines
DYEAR=1900
DGENRE=Blues /Folk
TTITLE0=Sweeter Side
TTITLE1=One Minute
TTITLE2=Canada Girl
TTITLE3=Emergency Telephone
TTITLE4=Faultlines
TTITLE5=Sailing Home
TTITLE6=Ghost Of Men
TTITLE7=If Ever You Fall
TTITLE8=The Hardest Thing
TTITLE9=Let The Hunger Linger
TTITLE10=Pago Pago
TTITLE11=Singing Sands
EXTD=
EXTT0=
EXTT1=
EXTT2=
EXTT3=
EXTT4=
EXTT5=
EXTT6=
EXTT7=
EXTT8=
EXTT9=
EXTT10=
EXTT11=
PLAYORDER=
